<?xml version="1.0" encoding="UTF-8"?>
<svg width="589px" height="202px" viewBox="0 0 589 202" version="1.1" xmlns="http://www.w3.org/2000/svg" xmlns:xlink="http://www.w3.org/1999/xlink">
    <!-- Generator: Sketch 51.2 (57519) - http://www.bohemiancoding.com/sketch -->
    <title>logo</title>
    <desc>Created with Sketch.</desc>
    <defs></defs>
    <g id="Page-1" stroke="none" stroke-width="1" fill="none" fill-rule="evenodd">
        <g id="logo" transform="translate(0.000000, 1.000000)">
            <polygon id="Shape" fill="#61DAFB" fill-rule="nonzero" points="0 150 0 50 93.5 0 187 50 187 150 93.5 200"></polygon>
            <polygon id="Shape" fill="#FFFFFF" fill-rule="nonzero" points="93.5 132.70015 62.1958406 116.149925 62.1958406 82.850075 93.5 66.2998501 124.804159 82.850075 156 66.2998501 93.5 33 31 66.2998501 31 132.70015 93.5 166 156 132.70015 124.804159 116.149925"></polygon>
            <polygon id="Shape" stroke="#FFFFFF" fill="#000000" fill-rule="nonzero" opacity="0.04" points="0 50 94 100 94 0"></polygon>
            <polygon id="Shape" stroke="#FFFFFF" fill="#000000" fill-rule="nonzero" opacity="0.04" points="0 150 94 200 94 100"></polygon>
            <polygon id="Shape" stroke="#FFFFFF" fill="#000000" fill-rule="nonzero" opacity="0.08" points="94 100 188 150 188 50"></polygon>
            <polygon id="Shape" fill-opacity="0" fill="#000000" fill-rule="nonzero" points="94 100 0 50 0 150"></polygon>
            <polygon id="Shape" stroke="#FFFFFF" fill="#000000" fill-rule="nonzero" opacity="0.08" points="188 150 94 100 94 200"></polygon>
            <polygon id="Shape" stroke="#FFFFFF" fill="#000000" fill-rule="nonzero" opacity="0.08" points="188 50 94 0 94 100"></polygon>
            <text id="Admin" font-family="Georgia" font-size="120" font-weight="normal" fill="#4A4A4A">
                <tspan x="230" y="143">Admin</tspan>
            </text>
        </g>
    </g>
</svg>